<svg width="630" height="720" xmlns="http://www.w3.org/2000/svg" xmlns:xlink="http://www.w3.org/1999/xlink" overflow='hidden' style='display: block;margin-left: auto;margin-right: auto;'>
    <defs>
        <radialGradient cx="2.98132e+06" cy="3.40519e+06" r="4.52588e+06" fx="2.98133e+06" fy="3.40519e+06" gradientUnits="userSpaceOnUse" spreadMethod="pad" id="fill1" gradientTransform="matrix(-0.000104987 1.28572e-20 -1.28572e-20 -0.000104987 632 717)">
            <stop offset="0" stop-color="#1580B8"/>
            <stop offset="0.42" stop-color="#1580B8"/>
            <stop offset="0.60" stop-color="#199CDD"/>
            <stop offset="1" stop-color="#199CDD"/>
        </radialGradient>
    </defs>
    <g>
        <path d="M317.909 667.988C331.461 667.988 342.447 678.96 342.447 692.494 342.447 706.028 331.461 717 317.909 717 304.356 717 293.37 706.028 293.37 692.494 293.37 678.96 304.356 667.988 317.909 667.988ZM175.415 589.796C188.968 589.796 199.954 600.768 199.954 614.302 199.954 627.837 188.968 638.809 175.415 638.809 161.863 638.809 150.876 627.837 150.876 614.302 150.876 600.768 161.863 589.796 175.415 589.796ZM464.634 586.466C478.187 586.466 489.173 597.438 489.173 610.972 489.173 624.506 478.187 635.478 464.634 635.478 451.082 635.478 440.096 624.506 440.096 610.972 440.096 597.438 451.082 586.466 464.634 586.466ZM30.8983 503.932C44.4508 503.932 55.4371 514.904 55.4371 528.438 55.4371 541.973 44.4508 552.944 30.8983 552.944 17.3459 552.944 6.35956 541.973 6.35956 528.438 6.35956 514.904 17.3459 503.932 30.8983 503.932ZM607.461 503.234C621.014 503.234 632 514.206 632 527.741 632 541.275 621.014 552.247 607.461 552.247 593.909 552.247 582.922 541.275 582.922 527.741 582.922 514.206 593.909 503.234 607.461 503.234ZM316.798 475.28C341.339 475.28 361.234 495.148 361.234 519.656 361.234 544.165 341.339 564.033 316.798 564.033 292.257 564.033 272.363 544.165 272.363 519.656 272.363 495.148 292.257 475.28 316.798 475.28ZM464.634 401.286C489.176 401.286 509.07 421.154 509.07 445.663 509.07 470.171 489.176 490.039 464.634 490.039 440.093 490.039 420.199 470.171 420.199 445.663 420.199 421.154 440.093 401.286 464.634 401.286ZM175.415 401.286C199.956 401.286 219.851 421.154 219.851 445.663 219.851 470.171 199.956 490.039 175.415 490.039 150.874 490.039 130.979 470.171 130.979 445.663 130.979 421.154 150.874 401.286 175.415 401.286ZM606.696 333.895C620.249 333.895 631.235 344.866 631.235 358.401 631.235 371.935 620.249 382.907 606.696 382.907 593.144 382.907 582.157 371.935 582.157 358.401 582.157 344.866 593.144 333.895 606.696 333.895ZM30.5388 333.894C44.0912 333.894 55.0776 344.866 55.0776 358.401 55.0776 371.935 44.0912 382.907 30.5388 382.907 16.9864 382.907 6 371.935 6 358.401 6 344.866 16.9864 333.894 30.5388 333.894ZM318.77 285.801C359.341 285.801 392.23 318.646 392.23 359.163 392.23 399.679 359.341 432.525 318.77 432.525 278.2 432.525 245.31 399.679 245.31 359.163 245.31 318.646 278.2 285.801 318.77 285.801ZM464.374 232.583C488.915 232.583 508.809 252.45 508.809 276.959 508.809 301.467 488.915 321.335 464.374 321.335 439.832 321.335 419.938 301.467 419.938 276.959 419.938 252.45 439.832 232.583 464.374 232.583ZM175.415 230.936C199.956 230.936 219.851 250.804 219.851 275.313 219.851 299.821 199.956 319.689 175.415 319.689 150.874 319.689 130.979 299.821 130.979 275.313 130.979 250.804 150.874 230.936 175.415 230.936ZM606.718 168.503C620.27 168.503 631.257 179.475 631.257 193.009 631.257 206.544 620.27 217.515 606.718 217.515 593.165 217.515 582.179 206.544 582.179 193.009 582.179 179.475 593.165 168.503 606.718 168.503ZM30.7404 167.664C44.2928 167.664 55.2792 178.636 55.2792 192.17 55.2792 205.705 44.2928 216.676 30.7404 216.676 17.1879 216.676 6.2016 205.705 6.2016 192.17 6.2016 178.636 17.1879 167.664 30.7404 167.664ZM318.814 148.491C343.355 148.491 363.249 168.359 363.249 192.868 363.249 217.376 343.355 237.244 318.814 237.244 294.272 237.244 274.378 217.376 274.378 192.868 274.378 168.359 294.272 148.491 318.814 148.491ZM464.634 86.6907C478.187 86.6907 489.173 97.6624 489.173 111.197 489.173 124.731 478.187 135.703 464.634 135.703 451.082 135.703 440.096 124.731 440.096 111.197 440.096 97.6624 451.082 86.6907 464.634 86.6907ZM175.356 85.3716C188.908 85.3716 199.894 96.3433 199.894 109.878 199.894 123.412 188.908 134.384 175.356 134.384 161.803 134.384 150.817 123.412 150.817 109.878 150.817 96.3433 161.803 85.3716 175.356 85.3716ZM318.77 2C332.323 2 343.309 12.9717 343.309 26.5061 343.309 40.0405 332.323 51.0122 318.77 51.0122 305.218 51.0122 294.232 40.0405 294.232 26.5061 294.232 12.9717 305.218 2 318.77 2Z" fill="url(#fill1)" fill-rule="evenodd"/>
    </g>
</svg>