<?xml version="1.0" encoding="UTF-8" standalone="no"?>
<svg
   xmlns:dc="http://purl.org/dc/elements/1.1/"
   xmlns:cc="http://creativecommons.org/ns#"
   xmlns:rdf="http://www.w3.org/1999/02/22-rdf-syntax-ns#"
   xmlns:svg="http://www.w3.org/2000/svg"
   xmlns="http://www.w3.org/2000/svg"
   id="svg983"
   style="display:block"
   version="1.1"
   height="349.71573"
   width="212.59425"
   y="0"
   x="0">
  <metadata
     id="metadata989">
    <rdf:RDF>
      <cc:Work
         rdf:about="">
        <dc:format>image/svg+xml</dc:format>
        <dc:type
           rdf:resource="http://purl.org/dc/dcmitype/StillImage" />
        <dc:title></dc:title>
      </cc:Work>
    </rdf:RDF>
  </metadata>
  <defs
     id="defs987">
    <filter
       id="filter5654"
       style="color-interpolation-filters:sRGB">
      <feColorMatrix
         id="feColorMatrix5652"
         values="1 0 0 0.04 -0 0 1 0 0.04 -0 0 0 1 0.04 -0 0 0 0 1 0" />
    </filter>
  </defs>
  <path
     id="path815"
     d="m 93.466797,7.4199219 c -0.186065,0.012024 -0.35956,0.054368 -0.519531,0.1289062 -2.9126,2.031868 0.265215,22.4387899 0.353515,33.6582029 l 3.529297,40.373047 c -0.206014,3.187546 -1.927523,5.133199 -3.44141,7.50786 -0.434433,0.400241 -0.937235,0.723035 -3.089844,2.828122 -1.730101,-0.469907 -4.266822,-1.78851 -6.177739,-2.650391 h -0.002 C 77.053832,86.013239 66.366178,78.397606 63.027344,79.8125 c -0.05722,4.212338 3.307258,9.240345 4.76563,13.164097 l 7.943359,20.318363 c -6.99107,4.48284 -14.619252,9.40758 -21.359371,13.42771 l -4.142578,5.11717 c -4.306837,4.89446 -9.391216,11.31896 -13.861369,16.79102 -0.680967,0.81591 -8.776816,13.81516 -12.533203,19.78906 l -0.353516,4.06446 -0.08789,5.56445 -18.7617192,22.48047 -0.1269532,0.0469 11.1210934,21.64453 6.355469,6.97852 c 5.765709,6.07802 11.158398,12.73663 15.97461,17.93359 l 11.826171,-0.26562 c 5.601721,-0.37602 13.176764,-0.45279 19.417969,-0.61719 6.060022,2.03014 12.948724,3.38577 18.623047,5.74219 l 3.972656,4.5039 c 0,0 -2.314602,1.59075 -3.53125,2.29697 l -3,2.20898 c -4.238049,3.74561 -9.349863,6.80965 -14.033203,10.07032 l -18.623047,16.96289 c -7.823985,8.05795 -16.533718,15.42806 -23.832034,21.82029 l -8.384766,7.59765 c -1.853401,1.94379 -2.646893,1.76735 -2.558593,4.06446 3.016714,4.19255 19.258562,8.44296 24.04688,10.03906 l -0.0039,0.01 0.234375,0.0664 0.328125,0.10938 0.0059,-0.0137 c 12.553014,4.18686 25.467562,7.53287 38.626953,10.00781 l -0.01953,-0.0254 c 6.157597,1.09437 12.359593,1.99731 18.59375,2.70703 5.616601,0.69485 11.258301,1.23225 16.916021,1.61133 6.42459,0.48017 12.86785,0.75575 19.3164,0.82617 2.20468,-0.0424 4.40863,-0.10884 6.61133,-0.19922 15.23678,-0.73563 30.7089,-2.03834 43.5937,-4.19345 l -0.006,0.004 0.0762,-0.0137 0.0215,-0.004 0.002,-0.002 c 6.21709,-0.99137 12.38981,-2.17641 18.50586,-3.55274 l 0.52734,-13.22656 v -9.27539 -21.37891 c -0.9419,-18.65867 -0.45812,-45.10087 -0.88279,-53.71103 -0.22057,-14.71897 -1.05534,-17.01987 -1.5977,-24.29692 l 0.01,0.002 -0.043,-0.55469 -0.0449,-0.76953 -0.0137,-0.004 -1.75196,-22.96485 c -0.99586,-15.18445 -7.10063,-40.1454 -9.0039,-45.0547 C 176.11665,106.21899 155.16335,82.798603 128.78129,49.59956 117.23859,35.992149 99.234804,7.0471759 93.466797,7.4199219 Z"
     style="display:block;fill:#000000;fill-opacity:1;fill-rule:evenodd;stroke:#000000;stroke-width:1;stroke-linejoin:miter;stroke-miterlimit:1;stroke-dasharray:none;stroke-opacity:1;paint-order:normal;filter:url(#filter5654)" />
</svg>
