<?xml version="1.0" encoding="UTF-8" standalone="no"?>
<svg
   xmlns:dc="http://purl.org/dc/elements/1.1/"
   xmlns:cc="http://creativecommons.org/ns#"
   xmlns:rdf="http://www.w3.org/1999/02/22-rdf-syntax-ns#"
   xmlns:svg="http://www.w3.org/2000/svg"
   xmlns="http://www.w3.org/2000/svg"
   x="0"
   y="0"
   width="350"
   height="350"
   version="1.1"
   style="display:block"
   id="svg983">
  <metadata
     id="metadata989">
    <rdf:RDF>
      <cc:Work
         rdf:about="">
        <dc:format>image/svg+xml</dc:format>
        <dc:type
           rdf:resource="http://purl.org/dc/dcmitype/StillImage" />
        <dc:title></dc:title>
      </cc:Work>
    </rdf:RDF>
  </metadata>
  <defs
     id="defs987">
    <filter
       style="color-interpolation-filters:sRGB"
       id="filter5654">
      <feColorMatrix
         values="1 0 0 0.04 -0 0 1 0 0.04 -0 0 0 1 0.04 -0 0 0 0 1 0"
         id="feColorMatrix5652" />
    </filter>
  </defs>
  <path
     style="display:block;fill:#000000;fill-opacity:1;fill-rule:evenodd;stroke:#000000;stroke-width:1;stroke-linejoin:miter;stroke-miterlimit:1;stroke-dasharray:none;stroke-opacity:1;paint-order:normal;filter:url(#filter5654)"
     d="m 163.60455,7.7041931 c -0.18607,0.012024 -0.35956,0.054368 -0.51953,0.1289062 -2.9126,2.031868 0.26521,22.4387897 0.35351,33.6582027 l 3.5293,40.373047 c -0.20602,3.187546 -1.92752,5.133199 -3.44141,7.50786 -0.43443,0.400241 -0.93724,0.723035 -3.08985,2.828122 -1.7301,-0.469907 -4.26682,-1.78851 -6.17773,-2.650391 h -0.002 c -7.06526,-3.25243 -17.75291,-10.868063 -21.09175,-9.453169 -0.0572,4.212338 3.30726,9.240345 4.76563,13.164097 l 7.94336,20.318362 c -6.99107,4.48284 -14.61925,9.40758 -21.35937,13.42771 l -4.14258,5.11717 c -4.30683,4.89446 -9.39121,11.31896 -13.86136,16.79102 -0.68097,0.81591 -8.776821,13.81516 -12.533208,19.78906 l -0.353516,4.06446 -0.08789,5.56445 -18.761719,22.48047 -0.126953,0.0469 11.121093,21.64453 6.355469,6.97852 c 5.765709,6.07802 11.158394,12.73663 15.974614,17.93359 l 11.82617,-0.26562 c 5.60172,-0.37602 13.17676,-0.45279 19.41797,-0.61719 6.06002,2.03014 12.94872,3.38577 18.62304,5.74219 l 3.97266,4.5039 c 0,0 -2.3146,1.59075 -3.53125,2.29697 l -3,2.20898 c -4.23805,3.74561 -9.34986,6.80965 -14.0332,10.07032 L 122.751,288.31955 c -7.82399,8.05795 -16.53372,15.42806 -23.832035,21.82029 l -8.384766,7.59765 c -1.853401,1.94379 -2.646893,1.76735 -2.558593,4.06446 3.016714,4.19255 19.258564,8.44296 24.046884,10.03906 l -0.004,0.01 0.23437,0.0664 0.32813,0.10938 0.006,-0.0137 c 12.55301,4.18686 25.46756,7.53287 38.62695,10.00781 l -0.0195,-0.0254 c 6.1576,1.09437 12.35959,1.99731 18.59375,2.70703 5.6166,0.69485 11.2583,1.23225 16.91602,1.61133 6.42459,0.48017 12.86785,0.75575 19.3164,0.82617 2.20468,-0.0424 4.40863,-0.10884 6.61133,-0.19922 15.23678,-0.73563 30.7089,-2.03834 43.5937,-4.19345 l -0.006,0.004 0.0762,-0.0137 0.0215,-0.004 0.002,-0.002 c 6.21709,-0.99137 12.38981,-2.17641 18.50586,-3.55274 l 0.52734,-13.22656 v -9.27539 -21.37891 c -0.9419,-18.65867 -0.45812,-45.10087 -0.88279,-53.71103 -0.22057,-14.71897 -1.05534,-17.01987 -1.5977,-24.29692 l 0.01,0.002 -0.043,-0.55469 -0.0449,-0.76953 -0.0137,-0.004 -1.75196,-22.96485 c -0.99586,-15.18445 -7.10063,-40.1454 -9.0039,-45.0547 C 246.2544,106.50326 225.3011,83.082874 198.91904,49.883831 187.37634,36.27642 169.37255,7.3314471 163.60455,7.7041931 Z"
     id="path815" />
</svg>
