<?xml version="1.0" encoding="UTF-8" standalone="no"?>
<svg
   xmlns:dc="http://purl.org/dc/elements/1.1/"
   xmlns:cc="http://creativecommons.org/ns#"
   xmlns:rdf="http://www.w3.org/1999/02/22-rdf-syntax-ns#"
   xmlns:svg="http://www.w3.org/2000/svg"
   xmlns="http://www.w3.org/2000/svg"
   id="svg7772"
   version="1.1"
   style="display:block;overflow:hidden"
   overflow="hidden"
   height="350"
   width="714">
  <metadata
     id="metadata7778">
    <rdf:RDF>
      <cc:Work
         rdf:about="">
        <dc:format>image/svg+xml</dc:format>
        <dc:type
           rdf:resource="http://purl.org/dc/dcmitype/StillImage" />
        <dc:title></dc:title>
      </cc:Work>
    </rdf:RDF>
  </metadata>
  <defs
     id="defs7776">
    <filter
       id="filter5654"
       style="color-interpolation-filters:sRGB">
      <feColorMatrix
         id="feColorMatrix5652"
         values="1 0 0 0.04 -0 0 1 0 0.04 -0 0 0 1 0.04 -0 0 0 0 1 0" />
    </filter>
  </defs>
  <g
     transform="translate(-14.117188,7.453904)"
     id="g8366">
    <g
       id="g7766"
       style="font-weight:300;font-size:133px;font-family:Nunito, Nunito_MSFontService, sans-serif;fill:#0a6cff;fill-opacity:1"
       aria-label="curiosity">
      <path
         id="path7748"
         d="m 46.308594,164.89844 c -5.940667,0 -11.217459,1.41852 -15.828125,4.25586 -4.522,2.83733 -8.067339,6.82803 -10.638672,11.9707 -2.482667,5.054 -3.724609,10.90664 -3.724609,17.55664 0,6.56133 1.241942,12.36788 3.724609,17.42188 2.482667,5.054 5.983859,8.95641 10.505859,11.70507 4.522,2.74867 9.754646,4.12305 15.695313,4.12305 3.369333,0 6.738088,-0.48756 10.107422,-1.46289 3.458,-1.064 6.383343,-2.48253 8.777343,-4.25586 1.773334,-1.24133 2.971131,-2.26255 3.591797,-3.06055 0.620667,-0.798 0.929688,-1.72897 0.929688,-2.79296 0,-0.88667 -0.264875,-1.6391 -0.796875,-2.25977 -0.532,-0.62067 -1.24224,-0.93164 -2.128906,-0.93164 -0.443334,0 -1.063329,0.22073 -1.861329,0.66406 -0.709333,0.44333 -1.463718,0.93284 -2.261718,1.46485 -2.66,1.68466 -5.141933,3.01294 -7.447266,3.98828 -2.216667,0.97533 -5.009573,1.46289 -8.378906,1.46289 -6.916,0 -12.325229,-2.25925 -16.226563,-6.78125 -3.812666,-4.61067 -5.71875,-11.03916 -5.71875,-19.28516 0,-8.33467 1.950229,-14.85145 5.851563,-19.55078 3.901333,-4.788 9.310562,-7.18359 16.226562,-7.18359 3.280667,0 6.073573,0.48755 8.378907,1.46289 2.305333,0.97533 4.610682,2.30556 6.916015,3.99023 1.950667,1.50733 3.369193,2.26172 4.255859,2.26172 0.798001,0 1.464094,-0.31097 1.996094,-0.93164 0.532,-0.62067 0.796875,-1.41725 0.796875,-2.39258 0,-1.064 -0.35512,-2.04107 -1.064453,-2.92773 -0.620667,-0.97534 -1.728219,-2.03874 -3.324219,-3.19141 -2.482666,-1.77333 -5.319718,-3.10357 -8.511718,-3.99023 -3.192,-0.88667 -6.472464,-1.33008 -9.841797,-1.33008 z"
         style="fill:#0a6cff;fill-opacity:1" />
      <path
         id="path7750"
         d="m 87.220703,165.16406 c -1.241333,0 -2.262547,0.39927 -3.060547,1.19727 -0.709333,0.70933 -1.0625,1.68445 -1.0625,2.92578 v 37.64062 c 0,8.246 1.906084,14.49596 5.71875,18.75196 3.901334,4.16733 9.663727,6.25195 17.289064,6.25195 4.788,0 9.04553,-1.06536 12.76953,-3.19336 3.81267,-2.128 6.73801,-5.22993 8.77734,-9.30859 v 8.11328 c 0,1.24133 0.35512,2.26059 1.06446,3.05859 0.70933,0.70934 1.6403,1.0625 2.79297,1.0625 1.24133,0 2.21644,-0.35316 2.92578,-1.0625 0.798,-0.798 1.19726,-1.81726 1.19726,-3.05859 v -58.25586 c 0,-1.24133 -0.39926,-2.21645 -1.19726,-2.92578 -0.70934,-0.798 -1.68445,-1.19727 -2.92578,-1.19727 -1.24134,0 -2.21645,0.39927 -2.92579,1.19727 -0.70933,0.70933 -1.06445,1.68445 -1.06445,2.92578 v 33.7832 c 0,6.56134 -1.90608,11.83617 -5.71875,15.82617 -3.724,3.90134 -8.68982,5.85157 -14.89648,5.85157 -5.40867,0 -9.399373,-1.46268 -11.970706,-4.38867 -2.482667,-3.01467 -3.722656,-7.66952 -3.722656,-13.96485 v -37.10742 c 0,-1.24133 -0.35512,-2.21645 -1.064454,-2.92578 -0.709333,-0.798 -1.684448,-1.19727 -2.925781,-1.19727 z"
         style="fill:#0a6cff;fill-opacity:1" />
      <path
         id="path7752"
         d="m 161,165.16406 c -1.24133,0 -2.26059,0.35512 -3.05859,1.06446 -0.70934,0.70933 -1.06446,1.72859 -1.06446,3.05859 v 58.25586 c 0,1.33 0.35512,2.34926 1.06446,3.05859 0.798,0.70934 1.81726,1.0625 3.05859,1.0625 1.24133,0 2.21645,-0.35316 2.92578,-1.0625 0.70933,-0.70933 1.06445,-1.72859 1.06445,-3.05859 V 193.0957 c 0,-5.23133 1.50682,-9.79788 4.52149,-13.69922 3.10333,-3.90133 7.80232,-6.16253 14.09766,-6.7832 l 3.99023,-0.39844 c 2.66,-0.266 3.99023,-1.50794 3.99023,-3.72461 0,-1.24133 -0.35512,-2.12815 -1.06445,-2.66015 -0.70933,-0.532 -1.90518,-0.75468 -3.58984,-0.66602 l -1.86328,0.13477 c -9.842,0.70933 -16.57951,4.87662 -20.21485,12.50195 v -8.64648 c 0,-1.24134 -0.35512,-2.21645 -1.06445,-2.92578 -0.70933,-0.70934 -1.6403,-1.06446 -2.79297,-1.06446 z"
         style="fill:#0a6cff;fill-opacity:1" />
      <path
         id="path7754"
         d="m 206.19922,138.56445 c -1.77333,0 -3.23601,0.53171 -4.38867,1.59571 -1.064,1.064 -1.59571,2.48448 -1.59571,4.25781 0,1.68467 0.53171,3.05709 1.59571,4.12109 1.15266,1.064 2.61534,1.59766 4.38867,1.59766 1.77333,0 3.19186,-0.53366 4.25586,-1.59766 1.15266,-1.064 1.72851,-2.43642 1.72851,-4.12109 0,-1.77333 -0.57585,-3.19381 -1.72851,-4.25781 -1.064,-1.064 -2.48253,-1.59571 -4.25586,-1.59571 z m 0,26.59961 c -1.24133,0 -2.26059,0.35512 -3.0586,1.06446 -0.70933,0.70933 -1.06445,1.72859 -1.06445,3.05859 v 58.25586 c 0,1.33 0.35512,2.34926 1.06445,3.05859 0.798,0.70934 1.81727,1.0625 3.0586,1.0625 1.24133,0 2.21645,-0.35316 2.92578,-1.0625 0.70933,-0.70933 1.06445,-1.72859 1.06445,-3.05859 v -58.25586 c 0,-1.33 -0.35512,-2.34926 -1.06445,-3.05859 -0.70933,-0.70934 -1.68445,-1.06446 -2.92578,-1.06446 z"
         style="fill:#0a6cff;fill-opacity:1" />
      <path
         id="path7756"
         d="m 257.35742,164.89844 c -5.94066,0 -11.17136,1.37438 -15.69336,4.12304 -4.43333,2.74867 -7.89038,6.65108 -10.37304,11.70508 -2.48267,5.054 -3.72461,10.94884 -3.72461,17.6875 0,6.73867 1.24194,12.63546 3.72461,17.68946 2.48266,5.054 5.93971,8.95641 10.37304,11.70507 4.522,2.74867 9.7527,4.12305 15.69336,4.12305 5.852,0 11.0405,-1.37438 15.5625,-4.12305 4.522,-2.74866 7.97905,-6.65107 10.37305,-11.70507 2.48267,-5.054 3.72461,-10.95079 3.72461,-17.68946 0,-6.73866 -1.24194,-12.6335 -3.72461,-17.6875 -2.394,-5.054 -5.85105,-8.95641 -10.37305,-11.70508 -4.522,-2.74866 -9.7105,-4.12304 -15.5625,-4.12304 z m 0,7.04883 c 6.65,0 11.8385,2.34949 15.5625,7.04882 3.81267,4.61067 5.71875,11.08331 5.71875,19.41797 0,8.512 -1.86194,15.03074 -5.58594,19.55274 -3.724,4.522 -9.00079,6.78125 -15.82812,6.78125 -6.82733,0 -12.05803,-2.25925 -15.69336,-6.78125 -3.63533,-4.522 -5.45312,-11.04074 -5.45313,-19.55274 0,-8.33466 1.86194,-14.8073 5.58594,-19.41797 3.724,-4.69933 8.9547,-7.04882 15.69336,-7.04882 z"
         style="fill:#0a6cff;fill-opacity:1" />
      <path
         id="path7758"
         d="m 326.375,164.89844 c -7.09333,0 -12.85768,1.77364 -17.29102,5.32031 -4.43333,3.458 -6.64843,8.02455 -6.64843,13.69922 0,4.69933 1.63925,8.46735 4.91992,11.30469 3.36933,2.74866 8.99929,5.00987 16.89062,6.7832 4.61067,0.97533 8.15796,1.99459 10.64063,3.05859 2.48267,0.97534 4.25631,2.17313 5.32031,3.5918 1.064,1.33 1.5957,3.0595 1.5957,5.1875 0,3.54667 -1.46267,6.29543 -4.38867,8.24609 -2.926,1.862 -7.00499,2.79297 -12.23633,2.79297 -4.07866,0 -7.49156,-0.53365 -10.24023,-1.59765 -2.66,-1.064 -5.27632,-2.43838 -7.84766,-4.12305 -1.95066,-1.33 -3.32504,-1.99414 -4.12304,-1.99414 -0.798,0 -1.50824,0.31097 -2.12891,0.93164 -0.532,0.62067 -0.79687,1.3731 -0.79687,2.25977 0,1.06399 0.31097,2.03911 0.93164,2.92578 0.70933,0.798 1.90517,1.77506 3.58984,2.92773 2.74867,1.77333 5.89669,3.19186 9.44336,4.25586 3.63533,0.97533 7.31506,1.46289 11.03906,1.46289 7.53667,0 13.56589,-1.64121 18.08789,-4.92187 4.61067,-3.36934 6.91602,-7.75735 6.91602,-13.16602 0,-3.458 -0.71024,-6.29701 -2.12891,-8.51367 -1.41866,-2.21667 -3.76816,-4.12275 -7.04883,-5.71875 -3.28066,-1.596 -7.97965,-3.10282 -14.09765,-4.52149 -4.256,-0.97533 -7.53647,-1.95044 -9.8418,-2.92578 -2.21667,-1.064 -3.81178,-2.26179 -4.78711,-3.59179 -0.88667,-1.33 -1.33008,-3.01341 -1.33008,-5.05274 0,-3.54667 1.37438,-6.33957 4.12305,-8.37891 2.74867,-2.128 6.4284,-3.19335 11.03906,-3.19335 3.63534,0 6.60483,0.53365 8.91016,1.59765 2.394,0.97534 4.78764,2.30362 7.18164,3.98828 1.862,1.41867 3.23638,2.12891 4.12305,2.12891 0.798,0 1.46409,-0.31097 1.99609,-0.93164 0.62067,-0.70933 0.92969,-1.50591 0.92969,-2.39258 0,-2.03933 -1.55097,-4.12395 -4.6543,-6.25195 -2.30533,-1.68467 -5.05409,-2.97076 -8.24609,-3.85742 -3.10334,-0.88667 -6.3838,-1.33008 -9.8418,-1.33008 z"
         style="fill:#0a6cff;fill-opacity:1" />
      <path
         id="path7760"
         d="m 371.92969,138.56445 c -1.77334,0 -3.23601,0.53171 -4.38867,1.59571 -1.064,1.064 -1.59571,2.48448 -1.59571,4.25781 0,1.68467 0.53171,3.05709 1.59571,4.12109 1.15266,1.064 2.61533,1.59766 4.38867,1.59766 1.77333,0 3.19186,-0.53366 4.25586,-1.59766 1.15266,-1.064 1.72851,-2.43642 1.72851,-4.12109 0,-1.77333 -0.57585,-3.19381 -1.72851,-4.25781 -1.064,-1.064 -2.48253,-1.59571 -4.25586,-1.59571 z m 0,26.59961 c -1.24134,0 -2.2606,0.35512 -3.0586,1.06446 -0.70933,0.70933 -1.06445,1.72859 -1.06445,3.05859 v 58.25586 c 0,1.33 0.35512,2.34926 1.06445,3.05859 0.798,0.70934 1.81726,1.0625 3.0586,1.0625 1.24133,0 2.21645,-0.35316 2.92578,-1.0625 0.70933,-0.70933 1.06445,-1.72859 1.06445,-3.05859 v -58.25586 c 0,-1.33 -0.35512,-2.34926 -1.06445,-3.05859 -0.70933,-0.70934 -1.68445,-1.06446 -2.92578,-1.06446 z"
         style="fill:#0a6cff;fill-opacity:1" />
      <path
         id="path7762"
         d="m 404.86133,145.88086 c -1.24134,0 -2.21645,0.35317 -2.92578,1.0625 -0.70934,0.70933 -1.06446,1.73055 -1.06446,3.06055 v 16.49023 h -10.10742 c -1.064,0 -1.90668,0.31097 -2.52734,0.93164 -0.62067,0.62067 -0.93164,1.4192 -0.93164,2.39453 0,0.97534 0.31097,1.77387 0.93164,2.39453 0.62066,0.532 1.46334,0.79688 2.52734,0.79688 h 10.10742 v 35.3789 c 0,7.53667 1.59707,13.16663 4.78907,16.89063 3.28066,3.63533 8.28867,5.67385 15.02734,6.11719 l 3.72461,0.26562 c 1.77333,0.0887 3.05942,-0.17621 3.85742,-0.79687 0.798,-0.62067 1.19727,-1.46335 1.19727,-2.52735 0,-2.03933 -1.24195,-3.19103 -3.72461,-3.45703 l -3.58985,-0.26758 c -4.522,-0.35466 -7.84856,-1.68294 -9.97656,-3.98828 -2.128,-2.394 -3.1914,-6.34055 -3.1914,-11.83789 v -35.77734 h 16.09374 c 1.15267,0 2.03949,-0.26488 2.66016,-0.79688 0.62067,-0.62066 0.92969,-1.41919 0.92969,-2.39453 0,-0.97533 -0.30902,-1.77386 -0.92969,-2.39453 -0.62067,-0.62067 -1.50749,-0.93164 -2.66016,-0.93164 h -16.09374 v -16.49023 c 0,-1.33 -0.39927,-2.35122 -1.19727,-3.06055 -0.70933,-0.70933 -1.68445,-1.0625 -2.92578,-1.0625 z"
         style="fill:#0a6cff;fill-opacity:1" />
      <path
         id="path7764"
         d="m 437.84961,165.03125 c -1.064,0 -2.08326,0.39927 -3.05859,1.19727 -0.88667,0.70933 -1.33008,1.59615 -1.33008,2.66015 0,0.532 0.13244,1.0637 0.39844,1.59571 l 27.26562,59.31835 -9.44336,20.61524 c -0.266,0.532 -0.39844,1.0637 -0.39844,1.5957 0,0.97534 0.35317,1.77387 1.0625,2.39453 0.798,0.62067 1.68483,0.93164 2.66016,0.93164 1.596,0 2.74965,-0.75438 3.45898,-2.26172 l 37.63868,-82.59374 c 0.266,-0.53201 0.39843,-1.10785 0.39843,-1.72852 0,-0.97533 -0.39926,-1.81801 -1.19726,-2.52734 -0.798,-0.70934 -1.68287,-1.06446 -2.65821,-1.06446 -1.596,0 -2.74965,0.79853 -3.45898,2.39453 l -23.93945,53.59961 -23.94141,-53.73242 c -0.62067,-1.596 -1.77236,-2.39453 -3.45703,-2.39453 z"
         style="fill:#0a6cff;fill-opacity:1" />
    </g>
    <path
       style="display:block;fill:#0062ff;fill-opacity:1;fill-rule:evenodd;stroke:#0062ff;stroke-width:1;stroke-linejoin:miter;stroke-miterlimit:1;stroke-dasharray:none;stroke-opacity:1;paint-order:normal;filter:url(#filter5654)"
       d="m 613.99684,-0.83374 c -0.18607,0.012 -0.35956,0.0544 -0.51953,0.1289 -2.9126,2.03187 0.26521,22.43879 0.35351,33.6582 l 3.5293,40.37305 c -0.20602,3.18755 -1.92753,5.1332 -3.44141,7.50786 -0.43444,0.40024 -0.93724,0.72304 -3.08985,2.82812 -1.7301,-0.4699 -4.26682,-1.78851 -6.17773,-2.65039 h -0.002 c -7.06526,-3.25243 -17.75291,-10.86806 -21.09174,-9.45317 -0.0572,4.21234 3.30725,9.24035 4.76563,13.1641 l 7.94336,20.31836 c -6.99107,4.48284 -14.61926,9.40758 -21.35938,13.42771 l -4.14257,5.11717 c -4.30684,4.89446 -9.39122,11.31896 -13.86137,16.79102 -0.68097,0.81591 -8.77682,13.81516 -12.53321,19.78906 l -0.35351,4.06446 -0.0879,5.56445 -18.76172,22.48047 -0.12695,0.0469 11.12109,21.64453 6.35547,6.97852 c 5.76571,6.07802 11.1584,12.73663 15.97461,17.93359 l 11.82617,-0.26562 c 5.60172,-0.37602 13.17676,-0.45279 19.41797,-0.61719 6.06002,2.03014 12.94872,3.38577 18.62304,5.74219 l 3.97266,4.5039 c 0,0 -2.3146,1.59075 -3.53125,2.29697 l -3,2.20898 c -4.23805,3.74561 -9.34986,6.80965 -14.0332,10.07032 l -18.62305,16.96289 c -7.82398,8.05795 -16.53372,15.42806 -23.83203,21.82029 l -8.38477,7.59765 c -1.8534,1.94379 -2.64689,1.76735 -2.55859,4.06446 3.01671,4.19255 19.25856,8.44296 24.04688,10.03906 l -0.004,0.01 0.23437,0.0664 0.32813,0.10938 0.006,-0.0137 c 12.55301,4.18686 25.46756,7.53287 38.62695,10.00781 l -0.0195,-0.0254 c 6.1576,1.09437 12.35959,1.99731 18.59375,2.70703 5.6166,0.69485 11.2583,1.23225 16.91602,1.61133 6.42459,0.48017 12.86785,0.75575 19.3164,0.82617 2.20468,-0.0424 4.40863,-0.10884 6.61133,-0.19922 15.23678,-0.73563 30.7089,-2.03834 43.5937,-4.19345 l -0.006,0.004 0.0762,-0.0137 0.0215,-0.004 0.002,-0.002 c 6.21709,-0.99137 12.38981,-2.17641 18.50586,-3.55274 l 0.52734,-13.22656 v -9.27539 -21.37891 c -0.9419,-18.65867 -0.45812,-45.10087 -0.88279,-53.71103 -0.22057,-14.71897 -1.05534,-17.01987 -1.5977,-24.29692 l 0.01,0.002 -0.043,-0.55469 -0.0449,-0.76953 -0.0137,-0.004 -1.75196,-22.96485 c -0.99586,-15.18445 -7.10063,-40.1454 -9.0039,-45.0547 C 696.64671,97.96532 675.69341,74.54494 649.31135,41.34589 637.76865,27.73848 619.76486,-1.20649 613.99686,-0.83374 Z"
       id="path815" />
  </g>
</svg>
