<?xml version="1.0" standalone="no"?>
<!DOCTYPE svg PUBLIC "-//W3C//DTD SVG 20010904//EN"
 "http://www.w3.org/TR/2001/REC-SVG-20010904/DTD/svg10.dtd">
<svg version="1.0" xmlns="http://www.w3.org/2000/svg"
 width="1348.000000pt" height="1348.000000pt" viewBox="0 0 1348.000000 1348.000000"
 preserveAspectRatio="xMidYMid meet">
<metadata>
Created by potrace 1.11, written by Peter Selinger 2001-2013
</metadata>
<g transform="translate(0.000000,1348.000000) scale(0.100000,-0.100000)"
fill="#000000" stroke="none">
<path d="M6366 13411 c-23 -25 -38 -71 -41 -126 -2 -27 -4 -52 -5 -55 -4 -15
0 -162 5 -170 4 -6 1 -10 -5 -10 -6 0 -8 -5 -5 -10 4 -6 9 -46 11 -88 4 -88
12 -204 18 -277 2 -27 7 -95 11 -150 4 -55 9 -125 11 -155 2 -30 6 -95 8 -145
5 -104 16 -272 22 -330 2 -22 6 -67 8 -100 3 -33 7 -84 10 -115 14 -135 33
-353 41 -460 2 -30 4 -55 5 -55 0 0 3 -25 6 -55 7 -85 13 -160 18 -215 3 -27
8 -86 11 -130 4 -44 9 -96 10 -115 2 -19 6 -67 9 -106 3 -40 10 -84 16 -98 8
-23 4 -34 -33 -89 -23 -34 -44 -64 -47 -67 -13 -12 -80 -130 -101 -178 -28
-61 -30 -61 -134 -13 -33 16 -78 36 -100 46 -104 45 -268 136 -465 258 -47 29
-112 68 -145 86 -33 18 -64 36 -70 39 -5 4 -12 7 -15 7 -3 1 -23 9 -45 19 -91
39 -173 41 -197 3 -16 -25 0 -135 24 -161 4 -6 8 -18 8 -27 0 -10 3 -19 8 -21
10 -4 148 -281 145 -290 -2 -5 1 -8 5 -8 5 0 9 -6 9 -12 0 -14 44 -128 76
-198 11 -25 20 -51 20 -57 0 -7 5 -13 10 -13 6 0 8 -3 5 -6 -5 -5 21 -81 52
-149 5 -11 23 -58 41 -105 18 -47 36 -89 41 -95 4 -5 8 -17 8 -27 0 -10 4 -26
9 -36 18 -36 45 -98 47 -110 1 -7 -12 -20 -28 -28 -17 -9 -36 -20 -42 -25 -11
-9 -96 -65 -129 -84 -64 -39 -333 -212 -342 -221 -6 -6 -44 -30 -85 -53 -41
-23 -88 -51 -105 -61 -16 -11 -37 -23 -45 -27 -45 -21 -91 -67 -178 -181 -9
-12 -33 -39 -53 -60 -19 -20 -51 -58 -71 -84 -19 -26 -38 -45 -42 -41 -3 3 -6
1 -6 -7 0 -7 -12 -27 -27 -44 -16 -18 -43 -51 -61 -74 -19 -22 -41 -50 -50
-60 -10 -11 -30 -37 -47 -58 -59 -75 -163 -200 -182 -220 -7 -7 -13 -15 -13
-18 0 -2 -13 -20 -30 -38 -16 -18 -30 -38 -30 -46 0 -7 -6 -15 -14 -18 -8 -3
-17 -13 -20 -22 -5 -18 -20 -42 -100 -169 -27 -43 -62 -98 -77 -123 -16 -25
-33 -50 -39 -57 -5 -7 -10 -14 -10 -17 0 -3 -25 -45 -56 -93 -81 -127 -81
-127 -82 -137 0 -5 -4 -12 -9 -15 -5 -3 -23 -28 -40 -56 -35 -57 -42 -96 -49
-275 -5 -146 -8 -163 -32 -187 -10 -10 -38 -43 -62 -73 -24 -30 -52 -64 -62
-75 -10 -11 -57 -67 -104 -125 -48 -58 -89 -107 -93 -110 -3 -3 -22 -25 -41
-50 -41 -53 -55 -70 -95 -116 -16 -19 -40 -47 -52 -62 -12 -15 -39 -47 -60
-72 -21 -25 -56 -68 -78 -94 -22 -27 -45 -54 -52 -61 -11 -12 -8 -50 7 -70 4
-5 47 -89 96 -185 48 -96 91 -177 95 -180 3 -3 10 -16 14 -30 4 -14 17 -38 29
-55 11 -16 20 -32 20 -35 -2 -6 19 -53 26 -60 7 -7 32 -64 30 -69 -1 -2 2 -7
7 -10 4 -3 30 -49 57 -101 27 -52 61 -108 77 -125 86 -92 237 -258 272 -299
52 -62 124 -141 140 -155 9 -8 17 -21 17 -28 0 -7 4 -13 9 -13 5 0 47 -44 92
-97 46 -54 96 -110 111 -125 15 -16 26 -28 23 -28 -2 0 6 -10 18 -23 12 -13
53 -58 92 -101 l70 -77 230 7 c126 3 287 7 357 8 71 0 128 3 128 6 0 11 543
10 555 0 7 -6 17 -10 21 -9 5 1 11 0 14 -1 3 -1 12 -3 20 -5 8 -2 56 -16 105
-30 50 -15 97 -28 105 -30 8 -2 35 -10 60 -18 60 -20 163 -51 175 -53 6 0 17
-4 25 -7 27 -10 95 -31 105 -32 36 -4 66 -21 91 -53 16 -19 47 -56 69 -80 68
-76 69 -78 35 -92 -17 -7 -30 -16 -30 -21 0 -4 -9 -11 -20 -14 -23 -7 -154
-104 -215 -159 -22 -19 -44 -36 -49 -36 -4 0 -22 -11 -40 -25 -17 -14 -35 -29
-41 -33 -5 -5 -41 -29 -80 -55 -192 -128 -308 -213 -360 -262 -30 -28 -134
-123 -254 -231 -30 -27 -74 -68 -99 -91 -24 -24 -45 -43 -47 -43 -4 0 -115
-102 -239 -221 -120 -115 -153 -145 -241 -224 -36 -33 -79 -71 -94 -85 -38
-35 -208 -189 -249 -225 -18 -16 -50 -46 -71 -65 -20 -19 -77 -71 -126 -115
-49 -44 -104 -95 -122 -112 -19 -18 -36 -33 -38 -33 -2 0 -27 -23 -54 -50 -28
-28 -52 -50 -54 -50 -3 0 -25 -19 -49 -43 -25 -23 -87 -80 -138 -127 -51 -47
-107 -98 -125 -115 -46 -43 -54 -63 -51 -134 3 -49 9 -68 27 -88 13 -15 219
-221 458 -460 l434 -433 3209 0 3208 0 -3 2383 c-4 2034 -7 2522 -17 2522 -1
0 -3 32 -5 70 -4 90 -13 206 -21 270 -3 28 -7 86 -9 130 -2 44 -4 80 -5 80 -1
0 -3 29 -6 65 -2 36 -6 90 -9 120 -3 30 -7 91 -10 135 -3 44 -7 100 -9 125 -2
25 -7 85 -10 134 -4 49 -9 93 -12 98 -4 6 -8 31 -11 56 -2 25 -8 53 -13 62 -5
10 -12 38 -14 61 -3 24 -12 71 -20 104 -8 33 -17 74 -20 90 -10 56 -16 90 -22
115 -3 14 -8 39 -11 55 -7 41 -11 60 -13 60 -1 0 -3 9 -4 20 -2 16 -11 60 -31
150 -1 6 -5 26 -8 45 -12 63 -17 84 -27 135 -6 28 -13 60 -16 73 -2 12 -6 33
-9 47 -3 14 -7 37 -10 53 -3 15 -10 47 -15 72 -5 25 -12 59 -15 77 -3 18 -9
42 -14 55 -5 13 -9 25 -9 28 -1 20 -20 135 -22 135 -1 0 -3 16 -5 35 -1 19
-10 71 -20 115 -9 44 -18 87 -20 96 -3 16 -28 70 -118 259 -22 47 -40 88 -39
93 1 4 -3 7 -10 7 -6 0 -9 3 -5 6 3 4 -1 21 -10 38 -10 17 -18 33 -18 36 0 3
-29 63 -63 133 -34 71 -62 131 -62 133 0 2 -18 40 -40 85 -22 45 -40 88 -40
96 0 7 -4 13 -10 13 -5 0 -10 5 -10 11 0 6 -19 50 -41 98 -23 47 -53 111 -66
141 -26 56 -72 154 -143 304 -22 47 -40 88 -40 91 0 4 -6 13 -12 20 -22 24
-31 37 -107 150 -41 61 -78 112 -83 113 -4 2 -8 10 -8 18 0 8 -3 14 -8 14 -4
0 -12 9 -17 19 -14 26 -147 220 -162 236 -7 8 -13 18 -13 23 0 6 -3 12 -8 14
-4 2 -32 39 -61 83 -30 44 -58 82 -63 83 -4 2 -8 8 -8 13 0 12 -54 89 -87 124
-7 8 -13 16 -13 20 0 3 -10 16 -22 29 -36 36 -112 126 -128 152 -8 13 -18 24
-22 24 -5 0 -8 5 -8 10 0 6 -8 18 -17 28 -20 20 -60 69 -95 115 -23 31 -175
222 -227 287 -16 19 -51 64 -79 100 -29 36 -57 71 -63 79 -7 7 -28 34 -47 60
-19 25 -38 48 -41 51 -3 3 -18 21 -33 42 -15 20 -33 42 -40 50 -8 7 -29 33
-48 58 -19 25 -38 47 -42 48 -5 2 -8 10 -8 17 0 7 -4 15 -8 17 -5 2 -46 50
-91 107 -45 57 -89 110 -97 118 -8 8 -14 17 -14 21 0 4 -15 23 -33 43 -17 19
-54 64 -82 100 -27 35 -54 69 -60 75 -5 6 -17 22 -25 34 -8 13 -23 32 -32 42
-10 10 -18 21 -18 26 0 4 -12 21 -27 38 -16 17 -44 53 -63 80 -19 28 -45 64
-58 80 -12 16 -48 65 -79 109 -32 44 -61 82 -65 83 -4 2 -8 10 -8 18 0 8 -4
14 -8 14 -4 0 -15 12 -24 28 -9 15 -24 36 -32 47 -9 11 -29 38 -46 60 -16 22
-34 45 -40 52 -5 7 -10 16 -10 22 0 5 -4 11 -8 13 -5 2 -42 48 -82 103 -41 55
-79 105 -85 111 -5 6 -19 23 -30 39 -11 15 -30 39 -42 54 -13 14 -26 31 -30
36 -87 115 -292 325 -317 325 -9 0 -16 4 -16 9 0 5 -18 13 -40 19 -32 8 -42 7
-54 -7z"/>
</g>
</svg>
